<?xml version="1.0" encoding="UTF-8" standalone="no"?>
<!DOCTYPE svg PUBLIC "-//W3C//DTD SVG 1.1//EN"
 "http://www.w3.org/Graphics/SVG/1.1/DTD/svg11.dtd">
<!-- Generated by graphviz version 2.40.1 (20161225.0304)
 -->
<!-- Title: fsm Pages: 1 -->
<svg width="156pt" height="222pt"
 viewBox="0.00 0.00 156.11 221.60" xmlns="http://www.w3.org/2000/svg" xmlns:xlink="http://www.w3.org/1999/xlink">
<g id="graph0" class="graph" transform="scale(1 1) rotate(0) translate(4 217.6)">
<title>fsm</title>
<polygon fill="#ffffff" stroke="transparent" points="-4,4 -4,-217.6 152.1085,-217.6 152.1085,4 -4,4"/>
<!-- 00 -->
<g id="node1" class="node">
<title>00</title>
<ellipse fill="none" stroke="#000000" cx="56.2179" cy="-195.6" rx="27" ry="18"/>
<text text-anchor="middle" x="56.2179" y="-191.4" font-family="Times,serif" font-size="14.00" fill="#000000">00</text>
</g>
<!-- 00&#45;&gt;00 -->
<g id="edge1" class="edge">
<title>00&#45;&gt;00</title>
<path fill="none" stroke="#000000" d="M80.7503,-203.7211C91.7257,-204.4945 101.2179,-201.7875 101.2179,-195.6 101.2179,-191.4428 96.9329,-188.8567 90.7922,-187.8417"/>
<polygon fill="#000000" stroke="#000000" points="90.8702,-184.3424 80.7503,-187.4789 90.6174,-191.3378 90.8702,-184.3424"/>
<text text-anchor="middle" x="117.1632" y="-191.4" font-family="Times,serif" font-size="14.00" fill="#000000"> 0 / 0 </text>
</g>
<!-- 01 -->
<g id="node2" class="node">
<title>01</title>
<ellipse fill="none" stroke="#000000" cx="40.2179" cy="-106.8" rx="27" ry="18"/>
<text text-anchor="middle" x="40.2179" y="-102.6" font-family="Times,serif" font-size="14.00" fill="#000000">01</text>
</g>
<!-- 00&#45;&gt;01 -->
<g id="edge2" class="edge">
<title>00&#45;&gt;01</title>
<path fill="none" stroke="#000000" d="M32.9777,-186.4286C21.5473,-180.5923 8.8518,-171.8049 2.3273,-159.6 -3.8613,-148.0235 3.4011,-136.064 13.1666,-126.4605"/>
<polygon fill="#000000" stroke="#000000" points="15.7445,-128.8543 20.9409,-119.6214 11.1209,-123.5986 15.7445,-128.8543"/>
<text text-anchor="middle" x="19.1632" y="-147" font-family="Times,serif" font-size="14.00" fill="#000000"> 1 / 0 </text>
</g>
<!-- 01&#45;&gt;00 -->
<g id="edge3" class="edge">
<title>01&#45;&gt;00</title>
<path fill="none" stroke="#000000" d="M43.4509,-124.7433C45.6618,-137.0141 48.6374,-153.5287 51.1597,-167.5274"/>
<polygon fill="#000000" stroke="#000000" points="47.7622,-168.4091 52.98,-177.63 54.6512,-167.1678 47.7622,-168.4091"/>
<text text-anchor="middle" x="66.1632" y="-147" font-family="Times,serif" font-size="14.00" fill="#000000"> 0 / 1 </text>
</g>
<!-- 10 -->
<g id="node3" class="node">
<title>10</title>
<ellipse fill="none" stroke="#000000" cx="71.2179" cy="-18" rx="27" ry="18"/>
<text text-anchor="middle" x="71.2179" y="-13.8" font-family="Times,serif" font-size="14.00" fill="#000000">10</text>
</g>
<!-- 01&#45;&gt;10 -->
<g id="edge4" class="edge">
<title>01&#45;&gt;10</title>
<path fill="none" stroke="#000000" d="M45.6806,-89.1184C48.9273,-78.8246 53.2047,-65.6246 57.3273,-54 58.3685,-51.0641 59.4897,-48.007 60.6276,-44.9695"/>
<polygon fill="#000000" stroke="#000000" points="63.9435,-46.097 64.2414,-35.5063 57.4041,-43.5997 63.9435,-46.097"/>
<text text-anchor="middle" x="74.1632" y="-58.2" font-family="Times,serif" font-size="14.00" fill="#000000"> 1 / 1 </text>
</g>
<!-- 10&#45;&gt;00 -->
<g id="edge5" class="edge">
<title>10&#45;&gt;00</title>
<path fill="none" stroke="#000000" d="M81.7164,-34.9585C84.7601,-40.7766 87.6766,-47.4712 89.2179,-54 100.0053,-99.6962 102.9447,-115.7283 86.2179,-159.6 84.4281,-164.2942 81.7563,-168.8183 78.7321,-172.9814"/>
<polygon fill="#000000" stroke="#000000" points="75.8275,-171.0041 72.1992,-180.9583 81.2431,-175.4394 75.8275,-171.0041"/>
<text text-anchor="middle" x="114.1632" y="-102.6" font-family="Times,serif" font-size="14.00" fill="#000000"> 0 / 0 </text>
</g>
<!-- 10&#45;&gt;10 -->
<g id="edge6" class="edge">
<title>10&#45;&gt;10</title>
<path fill="none" stroke="#000000" d="M95.7503,-26.1211C106.7257,-26.8945 116.2179,-24.1875 116.2179,-18 116.2179,-13.8428 111.9329,-11.2567 105.7922,-10.2417"/>
<polygon fill="#000000" stroke="#000000" points="105.8702,-6.7424 95.7503,-9.8789 105.6174,-13.7378 105.8702,-6.7424"/>
<text text-anchor="middle" x="132.1632" y="-13.8" font-family="Times,serif" font-size="14.00" fill="#000000"> 1 / 0 </text>
</g>
</g>
</svg>
