<?xml version="1.0" encoding="UTF-8" standalone="no"?>
<!DOCTYPE svg PUBLIC "-//W3C//DTD SVG 1.1//EN"
 "http://www.w3.org/Graphics/SVG/1.1/DTD/svg11.dtd">
<!-- Generated by graphviz version 2.40.1 (20161225.0304)
 -->
<!-- Title: fsm Pages: 1 -->
<svg width="125pt" height="222pt"
 viewBox="0.00 0.00 125.09 221.60" xmlns="http://www.w3.org/2000/svg" xmlns:xlink="http://www.w3.org/1999/xlink">
<g id="graph0" class="graph" transform="scale(1 1) rotate(0) translate(4 217.6)">
<title>fsm</title>
<polygon fill="#ffffff" stroke="transparent" points="-4,4 -4,-217.6 121.088,-217.6 121.088,4 -4,4"/>
<!-- solid -->
<g id="node1" class="node">
<title>solid</title>
<ellipse fill="none" stroke="#000000" cx="39.9996" cy="-195.6" rx="29.6339" ry="18"/>
<text text-anchor="middle" x="39.9996" y="-191.4" font-family="Times,serif" font-size="14.00" fill="#000000">solid</text>
</g>
<!-- liquid -->
<g id="node2" class="node">
<title>liquid</title>
<ellipse fill="none" stroke="#000000" cx="39.9996" cy="-106.8" rx="33.646" ry="18"/>
<text text-anchor="middle" x="39.9996" y="-102.6" font-family="Times,serif" font-size="14.00" fill="#000000">liquid</text>
</g>
<!-- solid&#45;&gt;liquid -->
<g id="edge1" class="edge">
<title>solid&#45;&gt;liquid</title>
<path fill="none" stroke="#000000" d="M25.2333,-179.5934C20.7626,-173.7391 16.4268,-166.7806 14.1132,-159.6 11.8233,-152.4931 11.8233,-149.9069 14.1132,-142.8 15.3526,-138.9533 17.1724,-135.1702 19.2824,-131.5866"/>
<polygon fill="#000000" stroke="#000000" points="22.2712,-133.4144 24.9597,-123.1664 16.4672,-129.5011 22.2712,-133.4144"/>
<text text-anchor="middle" x="30.9428" y="-147" font-family="Times,serif" font-size="14.00" fill="#000000"> melt </text>
</g>
<!-- liquid&#45;&gt;solid -->
<g id="edge2" class="edge">
<title>liquid&#45;&gt;solid</title>
<path fill="none" stroke="#000000" d="M43.6399,-125.0409C44.6086,-130.7072 45.5188,-136.9905 45.9996,-142.8 46.6154,-150.2412 46.6154,-152.1588 45.9996,-159.6 45.7847,-162.1969 45.4839,-164.8885 45.1306,-167.5773"/>
<polygon fill="#000000" stroke="#000000" points="41.6303,-167.3132 43.5766,-177.7277 48.5497,-168.3726 41.6303,-167.3132"/>
<text text-anchor="middle" x="66.5894" y="-147" font-family="Times,serif" font-size="14.00" fill="#000000"> freeze </text>
</g>
<!-- gas -->
<g id="node3" class="node">
<title>gas</title>
<ellipse fill="none" stroke="#000000" cx="39.9996" cy="-18" rx="27" ry="18"/>
<text text-anchor="middle" x="39.9996" y="-13.8" font-family="Times,serif" font-size="14.00" fill="#000000">gas</text>
</g>
<!-- liquid&#45;&gt;gas -->
<g id="edge3" class="edge">
<title>liquid&#45;&gt;gas</title>
<path fill="none" stroke="#000000" d="M19.1622,-92.6553C12.2998,-86.7819 5.488,-79.3335 1.8046,-70.8 -3.3404,-58.8806 3.8012,-47.0381 13.2484,-37.5984"/>
<polygon fill="#000000" stroke="#000000" points="15.6338,-40.1607 20.7568,-30.8868 10.9686,-34.9418 15.6338,-40.1607"/>
<text text-anchor="middle" x="29.5971" y="-58.2" font-family="Times,serif" font-size="14.00" fill="#000000"> vaporize </text>
</g>
<!-- gas&#45;&gt;liquid -->
<g id="edge4" class="edge">
<title>gas&#45;&gt;liquid</title>
<path fill="none" stroke="#000000" d="M49.9193,-35.022C52.7941,-40.8443 55.5477,-47.5254 56.9996,-54 58.6333,-61.2857 58.6333,-63.5143 56.9996,-70.8 56.311,-73.8708 55.3296,-76.988 54.1813,-80.0381"/>
<polygon fill="#000000" stroke="#000000" points="50.8825,-78.8472 50.0988,-89.413 57.3004,-81.642 50.8825,-78.8472"/>
<text text-anchor="middle" x="87.5438" y="-58.2" font-family="Times,serif" font-size="14.00" fill="#000000"> condense </text>
</g>
</g>
</svg>
